<svg width="18" height="18" viewBox="0 0 19 20" fill="none" xmlns="http://www.w3.org/2000/svg">
<path d="M9.33827 2.41434C11.7687 2.41434 12.1001 2.41434 13.0943 2.41434C13.9781 2.41434 14.42 2.63528 14.7514 2.74575C15.1933 2.9667 15.5247 3.07717 15.8561 3.40858C16.1875 3.74 16.4085 4.07141 16.5189 4.5133C16.6294 4.84471 16.7399 5.2866 16.8503 6.17037C16.8503 7.16462 16.8503 7.38556 16.8503 9.92641C16.8503 12.4673 16.8503 12.6882 16.8503 13.6824C16.8503 14.5662 16.6294 15.0081 16.5189 15.3395C16.298 15.7814 16.1875 16.1128 15.8561 16.4442C15.5247 16.7757 15.1933 16.9966 14.7514 17.1071C14.42 17.2175 13.9781 17.328 13.0943 17.4385C12.1001 17.4385 11.8791 17.4385 9.33827 17.4385C6.79743 17.4385 6.57648 17.4385 5.58224 17.4385C4.69847 17.4385 4.25658 17.2175 3.92516 17.1071C3.48328 16.8861 3.15186 16.7757 2.82045 16.4442C2.48903 16.1128 2.26809 15.7814 2.15762 15.3395C2.04715 15.0081 1.93667 14.5662 1.8262 13.6824C1.8262 12.6882 1.8262 12.4673 1.8262 9.92641C1.8262 7.38556 1.8262 7.16462 1.8262 6.17037C1.8262 5.2866 2.04715 4.84471 2.15762 4.5133C2.37856 4.07141 2.48903 3.74 2.82045 3.40858C3.15186 3.07717 3.48328 2.85622 3.92516 2.74575C4.25658 2.63528 4.69847 2.52481 5.58224 2.41434C6.57648 2.41434 6.9079 2.41434 9.33827 2.41434ZM9.33827 0.757263C6.79743 0.757263 6.57648 0.757263 5.58224 0.757263C4.58799 0.757263 3.92516 0.978207 3.37281 1.19915C2.82045 1.42009 2.26809 1.75151 1.71573 2.30387C1.16337 2.85623 0.942431 3.29811 0.611016 3.96094C0.390072 4.5133 0.2796 5.17613 0.169128 6.17037C0.169128 7.16462 0.169128 7.49603 0.169128 9.92641C0.169128 12.4673 0.169128 12.6882 0.169128 13.6824C0.169128 14.6767 0.390072 15.3395 0.611016 15.8919C0.831959 16.4442 1.16337 16.9966 1.71573 17.549C2.26809 18.1013 2.70998 18.3223 3.37281 18.6537C3.92516 18.8746 4.58799 18.9851 5.58224 19.0956C6.57648 19.0956 6.9079 19.0956 9.33827 19.0956C11.7687 19.0956 12.1001 19.0956 13.0943 19.0956C14.0886 19.0956 14.7514 18.8746 15.3037 18.6537C15.8561 18.4327 16.4085 18.1013 16.9608 17.549C17.5132 16.9966 17.7341 16.5547 18.0655 15.8919C18.2865 15.3395 18.3969 14.6767 18.5074 13.6824C18.5074 12.6882 18.5074 12.3568 18.5074 9.92641C18.5074 7.49603 18.5074 7.16462 18.5074 6.17037C18.5074 5.17613 18.2865 4.5133 18.0655 3.96094C17.8446 3.40858 17.5132 2.85623 16.9608 2.30387C16.4085 1.75151 15.9666 1.53057 15.3037 1.19915C14.7514 0.978207 14.0886 0.867735 13.0943 0.757263C12.1001 0.757263 11.8791 0.757263 9.33827 0.757263Z" fill="white"/>
<path d="M9.33827 5.17613C6.68696 5.17613 4.58799 7.27509 4.58799 9.92641C4.58799 12.5777 6.68696 14.6767 9.33827 14.6767C11.9896 14.6767 14.0886 12.5777 14.0886 9.92641C14.0886 7.27509 11.9896 5.17613 9.33827 5.17613ZM9.33827 13.0196C7.6812 13.0196 6.24507 11.694 6.24507 9.92641C6.24507 8.26934 7.57073 6.8332 9.33827 6.8332C10.9953 6.8332 12.4315 8.15886 12.4315 9.92641C12.4315 11.5835 10.9953 13.0196 9.33827 13.0196Z" fill="white"/>
<path d="M14.199 6.17037C14.8091 6.17037 15.3037 5.67578 15.3037 5.06566C15.3037 4.45554 14.8091 3.96094 14.199 3.96094C13.5889 3.96094 13.0943 4.45554 13.0943 5.06566C13.0943 5.67578 13.5889 6.17037 14.199 6.17037Z" fill="white"/>
</svg>
