<svg width="18" height="18" viewBox="0 0 19 19" fill="none" xmlns="http://www.w3.org/2000/svg">
<path fill-rule="evenodd" clip-rule="evenodd" d="M1.74669 1.08635C1.1642 1.35623 0.879997 1.85297 0.880066 2.60072C0.880413 5.27297 1.82219 8.53434 3.26658 10.8652C4.61973 13.0489 6.54634 14.9773 8.72811 16.3316C11.0635 17.7814 14.3396 18.7267 17.0004 18.7187C17.758 18.7164 18.2693 18.4087 18.5221 17.803C18.6806 17.4232 18.6806 13.9105 18.5221 13.5307C18.2706 12.9279 17.7574 12.6173 17.0093 12.6149C16.4048 12.613 15.2516 12.4428 14.5952 12.2585C13.8842 12.059 13.3751 12.021 13.0808 12.1453C12.9485 12.2012 12.3444 12.6224 11.7383 13.0813L10.6363 13.9158L10.2129 13.6695C8.28451 12.5477 6.9654 11.2263 5.91206 9.36106L5.6818 8.95328L6.51473 7.85133C6.97282 7.24529 7.39008 6.6489 7.44194 6.52607C7.58283 6.19213 7.55801 5.84432 7.32824 4.93515C7.19809 4.42037 7.09229 3.76159 7.04562 3.17546C6.9532 2.01522 6.89447 1.78184 6.61491 1.46317C6.191 0.979893 6.07375 0.957825 3.93074 0.957825C2.22087 0.957825 1.99539 0.97108 1.74669 1.08635Z" fill="white"/>
</svg>
