<svg width="18" height="18" viewBox="0 0 17 22" fill="none" xmlns="http://www.w3.org/2000/svg">
<path fill-rule="evenodd" clip-rule="evenodd" d="M7.24354 0.601269C4.75678 1.12784 2.83606 2.60186 1.74458 4.82139C0.493714 7.36496 0.688289 9.80309 2.42086 13.2937C3.44382 15.3547 4.88376 17.5321 6.81319 19.9357C8.18435 21.6439 8.42038 21.8787 8.7663 21.8787C9.11222 21.8787 9.34825 21.6439 10.7194 19.9357C13.8282 16.0629 15.7814 12.5873 16.4292 9.77596C16.646 8.83513 16.6288 7.4179 16.3888 6.42573C16.1503 5.44034 15.5006 4.13191 14.856 3.33849C13.042 1.10598 10.0095 0.0155656 7.24354 0.601269ZM9.54469 4.38251C12.0245 4.8945 13.4014 7.61506 12.3181 9.86239C11.1092 12.3704 7.71762 12.8644 5.84733 10.8049C5.07588 9.95536 4.70483 8.73872 4.88029 7.63365C5.23053 5.42794 7.37348 3.93425 9.54469 4.38251Z" fill="white"/>
</svg>
