<svg width="18" height="18" viewBox="0 0 21 14" fill="none" xmlns="http://www.w3.org/2000/svg">
<g clip-path="url(#clip0_8_206)">
<path d="M20.0098 13.6748H1.48529L8.69652 7.00092C9.23422 7.35462 9.76416 7.69202 10.2821 8.04633C10.6012 8.26483 10.9017 8.27328 11.2219 8.05599C11.6838 7.74212 12.1546 7.44093 12.6188 7.12948C12.7454 7.04498 12.8386 7.00876 12.9772 7.13733C15.2914 9.28851 17.6085 11.4361 19.9286 13.58C19.9501 13.5999 19.9674 13.6253 20.0098 13.6748Z" fill="white"/>
<path d="M1.61853 0.678955H19.9399C19.2541 1.13165 18.6345 1.54148 18.0144 1.95011C15.6644 3.49811 13.3144 5.04731 10.9644 6.59773C10.8396 6.68042 10.7482 6.73353 10.5952 6.63213C7.63306 4.67168 4.66871 2.71465 1.70217 0.761043C1.67278 0.735301 1.64485 0.707894 1.61853 0.678955V0.678955Z" fill="white"/>
<path d="M0.743408 1.75574L7.53522 6.23254L0.743408 12.5183V1.75574Z" fill="white"/>
<path d="M20.7765 12.5207L13.9841 6.23313L20.7765 1.75452V12.5207Z" fill="white"/>
</g>
<defs>
<clipPath id="clip0_8_206">
<rect width="20.0343" height="12.9952" fill="white" transform="translate(0.743408 0.678955)"/>
</clipPath>
</defs>
</svg>
