<svg width="18" height="18" viewBox="0 0 19 15" fill="none" xmlns="http://www.w3.org/2000/svg">
<path d="M18.4107 2.25013C17.7689 2.5252 17.0354 2.70859 16.3018 2.80028C17.0354 2.34182 17.6772 1.6083 17.9523 0.783073C17.2187 1.24153 16.4852 1.5166 15.5683 1.69999C14.9265 0.966456 13.9178 0.507996 12.9092 0.507996C10.892 0.507996 9.24158 2.15844 9.24158 4.17565C9.24158 4.45073 9.24159 4.7258 9.33328 5.00087C6.30746 4.81749 3.55671 3.35043 1.72288 1.14983C1.44781 1.69998 1.26443 2.34182 1.26443 2.98366C1.26443 4.26734 1.90627 5.36764 2.91488 6.00948C2.27304 6.00948 1.72288 5.8261 1.26443 5.55103C1.26443 7.29316 2.5481 8.85191 4.19855 9.12699C3.92348 9.21868 3.55672 9.21868 3.18995 9.21868C2.91488 9.21868 2.73149 9.21868 2.45642 9.12699C2.91488 10.5941 4.29025 11.6944 5.9407 11.6944C4.65702 12.703 3.09826 13.2531 1.35612 13.2531C1.08105 13.2531 0.805975 13.2531 0.439209 13.1614C2.08966 14.17 4.01517 14.8119 6.12408 14.8119C12.9092 14.8119 16.5769 9.21868 16.5769 4.35903V3.90058C17.3104 3.6255 17.9523 2.98366 18.4107 2.25013Z" fill="white"/>
</svg>
